<svg xmlns="http://www.w3.org/2000/svg" version="1.1" xmlns:xlink="http://www.w3.org/1999/xlink" xmlns:svgjs="http://svgjs.dev/svgjs" width="1680" height="780" preserveAspectRatio="none" viewBox="0 0 1680 780"><g mask="url(&quot;#SvgjsMask6035&quot;)" fill="none"><rect width="1680" height="780" x="0" y="0" fill="rgba(1, 6, 12, 1)"></rect><circle r="65" cx="1053.95" cy="674.66" fill="#037b0b"></circle><circle r="96.30963756083163" cx="929.06" cy="717.72" fill="#e73635"></circle><path d="M1804.95 821.87 L1772.2 760.08L1813.404223269769 766.1457767302309z" stroke="#037b0b" stroke-width="2.89" stroke-dasharray="2, 2"></path><path d="M0.3 442.88L10.76 450.26 5.85 462.09 16.31 469.48 11.4 481.3 21.87 488.69 16.96 500.52M-7.39 445.1L3.07 452.48-1.84 464.31 8.63 471.7 3.72 483.53 14.18 490.91 9.27 502.74" stroke="#d3b714" stroke-width="1.99" stroke-dasharray="3, 3"></path><rect width="74.6" height="74.6" clip-path="url(&quot;#SvgjsClipPath6036&quot;)" x="1269.21" y="435.47" fill="url(&quot;#SvgjsPattern6037&quot;)" transform="rotate(118.09, 1306.51, 472.77)"></rect><rect width="444" height="444" clip-path="url(&quot;#SvgjsClipPath6038&quot;)" x="423.23" y="141.67" fill="url(&quot;#SvgjsPattern6039&quot;)" transform="rotate(206.05, 645.23, 363.67)"></rect><rect width="504" height="504" clip-path="url(&quot;#SvgjsClipPath6040&quot;)" x="1352.51" y="94.38" fill="url(&quot;#SvgjsPattern6041&quot;)" transform="rotate(111.12, 1604.51, 346.38)"></rect><circle r="65" cx="653.7" cy="86.53" fill="#e73635"></circle><path d="M242.01 586.43a5.6 5.6 0 1 0 8.29 7.53 5.6 5.6 0 1 0-8.29-7.53zM253.85 597.19a5.6 5.6 0 1 0 8.29 7.53 5.6 5.6 0 1 0-8.29-7.53zM265.69 607.95a5.6 5.6 0 1 0 8.29 7.53 5.6 5.6 0 1 0-8.29-7.53zM277.53 618.71a5.6 5.6 0 1 0 8.29 7.53 5.6 5.6 0 1 0-8.29-7.53z" fill="#e73635"></path><rect width="318.24" height="318.24" clip-path="url(&quot;#SvgjsClipPath6042&quot;)" x="158.01" y="45.18" fill="url(&quot;#SvgjsPattern6043&quot;)" transform="rotate(197.84, 317.13, 204.3)"></rect></g><defs><mask id="SvgjsMask6035"><rect width="1680" height="780" fill="#ffffff"></rect></mask><pattern x="0" y="0" width="7.46" height="7.46" patternUnits="userSpaceOnUse" id="SvgjsPattern6037"><path d="M0 7.46L3.73 0L7.46 7.46" stroke="#e73635" fill="none"></path></pattern><clipPath id="SvgjsClipPath6036"><circle r="18.65" cx="1306.51" cy="472.77"></circle></clipPath><pattern x="0" y="0" width="6" height="6" patternUnits="userSpaceOnUse" id="SvgjsPattern6039"><path d="M0 6L3 0L6 6" stroke="#e73635" fill="none"></path></pattern><clipPath id="SvgjsClipPath6038"><circle r="111" cx="645.23" cy="363.67"></circle></clipPath><pattern x="0" y="0" width="504" height="6" patternUnits="userSpaceOnUse" id="SvgjsPattern6041"><rect width="504" height="3" x="0" y="0" fill="#d3b714"></rect><rect width="504" height="3" x="0" y="3" fill="rgba(0, 0, 0, 0)"></rect></pattern><clipPath id="SvgjsClipPath6040"><circle r="126" cx="1604.51" cy="346.38"></circle></clipPath><pattern x="0" y="0" width="13.26" height="13.26" patternUnits="userSpaceOnUse" id="SvgjsPattern6043"><path d="M0 13.26L6.63 0L13.26 13.26" stroke="#d3b714" fill="none"></path></pattern><clipPath id="SvgjsClipPath6042"><circle r="79.56" cx="317.13" cy="204.3"></circle></clipPath></defs></svg>